<svg width="136" height="134" viewBox="0 0 136 134" fill="none" xmlns="http://www.w3.org/2000/svg">
<path d="M82.1012 24.6441C88.5955 17.7658 94.7809 10.2178 99.461 2" stroke="#445164" stroke-width="3" stroke-linecap="round"/>
<path fill-rule="evenodd" clip-rule="evenodd" d="M119.34 62.5064C119.561 60.8177 120.231 59.125 121.085 57.472C121.311 57.0242 121.695 56.6554 122.16 56.3985C122.824 56.0133 123.621 55.8567 124.263 56.021C125.416 56.3162 125.738 57.4347 125.181 58.5128C125.142 58.5844 125.115 58.649 125.075 58.7206C124.826 59.2674 124.576 59.8143 124.362 60.3654C124.26 60.6926 124.163 61.029 124.084 61.3675C123.857 62.5795 123.71 63.787 123.563 64.9917C123.484 65.6357 123.405 66.2788 123.315 66.9215C123.092 68.4995 122.747 70.1026 122.404 71.6914L122.377 71.8176C122.338 71.9991 122.299 72.1809 122.261 72.3628C121.816 74.4541 121.367 76.5716 120.642 78.6625C120.247 79.769 119.83 80.8643 119.296 81.9537L119.271 82.0036C118.859 82.8303 118.411 83.7298 117.748 84.4724C117.097 85.1906 116.281 85.7609 115.307 85.8616C114.885 85.9114 114.451 85.8578 114.129 85.6907C113.911 85.5861 113.726 85.4496 113.578 85.2887C113.207 85.3414 112.838 85.3753 112.47 85.3839C110.368 85.468 108.319 85.2975 106.284 85.1281C105.803 85.0881 105.322 85.0481 104.842 85.0116L104.859 85.0137C102.664 84.8956 100.472 84.8119 98.2444 84.8343C95.965 84.8503 93.6702 84.9238 91.3739 85.0227C90.362 85.0847 89.3432 85.1628 88.3176 85.257L86.6286 85.4308C85.7192 85.5309 84.9546 85.2667 84.581 84.6175C84.0706 83.7305 84.6341 82.4409 85.7893 81.7595C86.3401 81.4282 86.8542 81.3133 87.4414 81.2413C87.7116 81.2067 87.9734 81.2136 88.2026 81.2759C89.8795 81.1091 91.5429 80.9746 93.1962 80.9068C95.2759 80.8237 97.3246 80.7708 99.389 80.7453C101.372 80.7182 103.326 80.781 105.272 80.8852C106.799 80.9684 108.32 81.0798 109.837 81.191C110.155 81.2143 110.473 81.2376 110.79 81.2606C111.656 81.308 112.528 81.3392 113.415 81.3128C113.475 81.314 113.538 81.3064 113.598 81.2993C113.62 81.2967 113.641 81.2942 113.661 81.2922C113.666 81.2702 113.668 81.2527 113.67 81.2374C113.671 81.2239 113.672 81.212 113.673 81.2002C113.677 81.0393 113.681 80.8784 113.673 80.7245C113.603 80.1553 113.491 79.6232 113.355 79.0798L113.297 78.8808C112.71 76.8831 112.117 74.8661 111.304 72.9653C110.723 71.7173 109.992 70.5748 109.254 69.4231C109.129 69.2275 109.004 69.0316 108.879 68.8348C108.717 68.6091 108.557 68.3831 108.397 68.1574C107.824 67.3489 107.253 66.5433 106.627 65.7622C105.799 64.7425 104.927 63.76 104.038 62.7753C103.917 62.6548 103.796 62.5341 103.675 62.4135C103.046 61.7863 102.418 61.16 101.751 60.5647L101.742 60.5574C100.706 59.6501 99.6695 58.7427 98.6141 57.8585C97.8015 57.1729 96.9651 56.501 96.1334 55.833C95.9391 55.6769 95.7451 55.5211 95.5517 55.3654C94.9747 54.8925 94.3609 54.4577 93.7484 54.0238C93.4541 53.8153 93.1601 53.6071 92.8707 53.3949C92.9087 53.4289 92.949 53.4576 92.988 53.4853C93.0169 53.5058 93.045 53.5258 93.071 53.5471L92.9162 53.4452C91.3338 52.4027 89.7617 51.3671 88.0216 50.4859C86.6634 49.8341 85.2348 49.284 83.7736 48.7893C82.528 48.3892 81.2429 48.0607 79.9306 47.7968C78.8008 47.5979 77.6436 47.4635 76.4539 47.3847C75.0544 47.3054 73.6502 47.302 72.2135 47.3539C71.1547 47.4186 70.1049 47.5269 69.0347 47.6836C68.0217 47.8559 67.0109 48.0879 65.9917 48.3613C64.9467 48.6741 63.9175 49.0143 62.8972 49.398C61.6368 49.8966 60.408 50.4499 59.1987 51.0652C57.9514 51.7267 56.7237 52.4501 55.5223 53.2193C55.2548 53.3986 54.9993 53.571 54.7319 53.7503C57.5997 53.8325 60.424 54.1471 63.0014 54.8729C65.8827 55.6788 68.8393 56.8677 70.4937 59.0427C72.0729 61.1149 72.6761 63.7038 72.5403 66.4648C72.4085 69.0649 71.6507 71.8935 70.1684 74.4713C68.5353 77.3193 66.1477 79.8363 63.1758 81.814C60.2522 83.7637 56.916 84.9404 53.6394 85.1561C50.4269 85.3711 47.5965 84.4017 45.631 82.6385C43.5052 80.7367 41.9116 78.3314 40.8179 75.7585C39.7753 73.3022 39.0464 70.5789 39.3357 67.6924C39.6219 64.8566 40.9595 61.8872 42.9859 59.2746C43.1183 59.1126 43.2386 58.9575 43.371 58.7954C42.8569 58.9104 42.336 59.0415 41.8324 59.1747C40.2492 59.6164 38.6786 60.1361 37.1207 60.7338C35.8557 61.2427 34.6153 61.7943 33.3776 62.4013C33.3366 62.4238 33.2949 62.445 33.2516 62.4634C33.2428 62.4683 33.2339 62.4733 33.225 62.4785C31.7739 63.2338 30.3595 64.0531 28.9821 64.9364L28.97 64.9434C28.925 64.9695 28.8774 65.0018 28.8275 65.0342C27.1721 66.1403 25.5914 67.2969 24.0463 68.5151L23.5994 68.8895C22.0101 70.2204 20.4324 71.5418 18.9742 72.9773C18.3526 73.6057 17.7468 74.2614 17.1757 74.9215C16.727 75.4862 16.3077 76.0461 15.9163 76.6264C15.515 77.2734 15.1484 77.9247 14.8044 78.5873C14.461 79.3349 14.1522 80.0868 13.866 80.85C13.3914 82.21 12.9862 83.5786 12.6799 84.9509C12.5792 85.4481 12.508 85.9405 12.4661 86.428C12.4505 86.6809 12.4469 86.9268 12.4607 87.1749C12.4731 87.2898 12.4961 87.3984 12.5192 87.5071C12.5307 87.5613 12.5422 87.6155 12.5524 87.6704C12.5666 87.7231 12.5982 87.778 12.6124 87.8307C12.643 87.8992 12.6772 87.9655 12.7139 88.0324C12.7446 88.0886 12.7771 88.1451 12.8107 88.2035C13.3211 89.0905 12.775 90.3822 11.6025 91.0614C10.43 91.7407 9.03672 91.5603 8.53161 90.6824L8.47374 90.5818C8.06123 89.8089 7.78686 88.9681 7.78064 88.0329C7.76803 86.9185 7.92677 85.7658 8.20698 84.6281C8.48718 83.4904 8.84352 82.3452 9.19994 81.2C9.85128 79.0548 10.9027 76.8485 12.3091 74.839C13.8752 72.6028 15.8467 70.595 17.9681 68.7077C20.7374 66.2378 23.7139 63.9039 26.8709 61.8556C27.6235 61.3709 28.3745 60.9114 29.1292 60.4864C33.5655 57.9165 38.3701 55.9866 43.2167 54.8859C44.842 54.5173 46.4853 54.236 48.1117 54.0375C48.9047 53.3708 49.7187 52.7408 50.5553 52.122C56.4102 47.8159 63.2855 44.4426 70.2292 43.5413C72.0564 43.2996 73.8691 43.2005 75.6444 43.2328C77.2274 43.2668 78.8193 43.3443 80.3392 43.5489C83.3949 43.9855 86.2746 44.8167 88.9394 45.9186C92.0649 47.2048 94.8068 48.9449 97.4005 50.8195C99.1302 52.0609 100.774 53.3766 102.379 54.7385C103.216 55.4364 104.046 56.1505 104.864 56.8715C105.654 57.5722 106.407 58.2938 107.154 59.0316C108.66 60.5001 109.983 62.099 111.275 63.728C111.729 64.3066 112.142 64.9088 112.555 65.511C112.692 65.7116 112.83 65.9121 112.969 66.1117C113.699 67.1277 114.366 68.204 114.963 69.297C115.922 71.0456 116.582 72.9487 117.173 74.8768C117.428 73.8134 117.654 72.751 117.88 71.6903L117.93 71.4555L118.004 71.0805C118.362 69.2641 118.722 67.4423 118.943 65.6259C119.066 64.5792 119.2 63.5508 119.34 62.5064ZM33.2545 62.4618C33.2955 62.4416 33.3366 62.4214 33.3776 62.4013C33.4093 62.3839 33.4407 62.3658 33.4719 62.3476C33.4297 62.3721 33.3891 62.3926 33.3485 62.4131C33.3174 62.4288 33.2863 62.4444 33.2545 62.4618ZM33.2545 62.4618L33.2491 62.4645L33.2516 62.4634L33.2545 62.4618ZM58.1071 80.288C58.5497 80.1047 58.9818 79.9032 59.4259 79.6947C59.6729 79.5638 59.9146 79.4238 60.1738 79.2858C60.4155 79.1458 60.6452 79.0127 60.8817 78.8635C61.3926 78.5188 61.8929 78.1558 62.3827 77.7746C62.8619 77.375 63.3254 76.948 63.7715 76.5189C64.0899 76.1759 64.403 75.8239 64.7109 75.4626C65.034 75.0438 65.3398 74.6228 65.6351 74.1835C65.9061 73.7583 66.1477 73.3379 66.3788 72.8992C66.6388 72.3707 66.8572 71.854 67.0652 71.319C67.3082 70.593 67.5045 69.8696 67.6661 69.142C67.7731 68.5436 67.8505 67.9501 67.8986 67.3614C67.9293 66.7706 67.9186 66.1916 67.8715 65.6336C67.813 65.1677 67.7249 64.7066 67.6248 64.2526C67.5095 63.8561 67.3595 63.4553 67.2026 63.0707C67.0479 62.7457 66.8743 62.444 66.6886 62.1492C66.505 61.9142 66.3266 61.6884 66.1189 61.4673C65.8538 61.2307 65.5887 60.9942 65.2994 60.7716C64.8746 60.4813 64.4239 60.2303 63.9611 59.9863C63.2481 59.6434 62.5146 59.349 61.738 59.0917C60.8 58.8061 59.8362 58.5597 58.852 58.3617C57.5631 58.1286 56.2583 57.9732 54.9125 57.877C53.3771 57.7899 51.8271 57.7585 50.2485 57.835C49.9972 57.8464 49.7338 57.8649 49.4704 57.8834C49.2414 58.1014 49.0001 58.3265 48.771 58.5446C48.1993 59.1196 47.6555 59.7151 47.1327 60.3471C46.7029 60.8887 46.2889 61.4577 45.9097 62.031C45.5924 62.544 45.2977 63.0682 45.0204 63.5946C44.824 64.0376 44.6397 64.4736 44.4727 64.9117C44.342 65.3288 44.2287 65.748 44.1326 66.1694C44.0844 66.4778 44.0431 66.7699 44.0069 67.0713C43.9783 67.7218 43.986 68.3514 44.0284 68.9852C44.1203 69.761 44.2604 70.5089 44.4474 71.2541C44.7102 72.1869 45.0455 73.0778 45.4344 73.9497C45.937 74.9632 46.4878 75.9486 47.1234 76.885C47.601 77.5471 48.0975 78.186 48.6719 78.7921C49.1011 79.2018 49.5493 79.5884 50.0284 79.9448C50.1714 80.0348 50.3128 80.1217 50.4556 80.2061C50.5648 80.2706 50.6749 80.3336 50.7872 80.3953C51.1106 80.5371 51.4339 80.679 51.7762 80.7977C52.0402 80.8643 52.2988 80.9217 52.5575 80.9791C52.8577 81.0247 53.1353 81.0589 53.4371 81.0792C53.7388 81.0994 54.0474 81.1035 54.3629 81.0915C54.8081 81.053 55.2482 81.0054 55.695 80.9416C56.1313 80.8596 56.5623 80.7684 56.9949 80.6519C57.3686 80.5451 57.7318 80.42 58.1071 80.288Z" fill="#445164"/>
<path d="M59.5039 33.4092C54.3423 30.2443 49.8383 25.195 44.7763 21.6477C42.3035 19.9148 39.5712 18.9181 37.1871 17.124" stroke="#445164" stroke-width="3" stroke-linecap="round"/>
<path d="M70.3239 25.9452C73.0115 25.6456 71.6764 6.63403 71.6764 2.87451" stroke="#445164" stroke-width="3" stroke-linecap="round"/>
</svg>
